<svg width="28" height="28" viewBox="0 0 28 28" fill="none" xmlns="http://www.w3.org/2000/svg">
<path fill-rule="evenodd" clip-rule="evenodd" d="M14 28C21.732 28 28 21.732 28 14C28 6.268 21.732 -1.52588e-05 14 -1.52588e-05C6.26801 -1.52588e-05 0 6.268 0 14C0 21.732 6.26801 28 14 28ZM14.2929 8.29289C14.6834 7.90237 15.3166 7.90237 15.7071 8.29289L20.7071 13.2929C20.8946 13.4804 21 13.7348 21 14C21 14.2652 20.8946 14.5196 20.7071 14.7071L15.7071 19.7071C15.3166 20.0976 14.6834 20.0976 14.2929 19.7071C13.9024 19.3166 13.9024 18.6834 14.2929 18.2929L17.5858 15H8.00001C7.44772 15 7.00001 14.5523 7.00001 14C7.00001 13.4477 7.44772 13 8.00001 13H17.5858L14.2929 9.7071C13.9024 9.31658 13.9024 8.68341 14.2929 8.29289Z" fill="#717FE2"/>
</svg>
