<svg width="28" height="28" viewBox="0 0 28 28" fill="none" xmlns="http://www.w3.org/2000/svg">
<path fill-rule="evenodd" clip-rule="evenodd" d="M14 0C6.26801 0 0 6.26801 0 14C0 21.732 6.26801 28 14 28C21.732 28 28 21.732 28 14C28 6.26801 21.732 0 14 0ZM13.7071 19.7071C13.3166 20.0976 12.6834 20.0976 12.2929 19.7071L7.29288 14.7071C6.90235 14.3165 6.90235 13.6834 7.29288 13.2929L12.2929 8.29285C12.6834 7.90233 13.3166 7.90233 13.7071 8.29285C14.0976 8.68338 14.0976 9.31654 13.7071 9.70707L10.4142 13H20C20.5523 13 21 13.4477 21 14C21 14.5522 20.5523 15 20 15H10.4142L13.7071 18.2929C14.0976 18.6834 14.0976 19.3165 13.7071 19.7071Z" fill="#717FE2"/>
</svg>
