<svg width="16" height="16" viewBox="0 0 16 16" fill="none" xmlns="http://www.w3.org/2000/svg">
<path fill-rule="evenodd" clip-rule="evenodd" d="M15.3739 2.04044C15.7645 1.64992 15.7645 1.01675 15.3739 0.626229C14.9834 0.235705 14.3502 0.235705 13.9597 0.626229L8.00016 6.58579L2.0406 0.626229C1.65008 0.235705 1.01691 0.235705 0.626389 0.626229C0.235865 1.01675 0.235865 1.64992 0.626389 2.04044L6.58595 8L0.626389 13.9596C0.235865 14.3501 0.235865 14.9833 0.626389 15.3738C1.01691 15.7643 1.65008 15.7643 2.0406 15.3738L8.00016 9.41422L13.9597 15.3738C14.3502 15.7643 14.9834 15.7643 15.3739 15.3738C15.7645 14.9833 15.7645 14.3501 15.3739 13.9596L9.41438 8L15.3739 2.04044Z" fill="#D9145B"/>
</svg>
