<svg width="24" height="24" viewBox="0 0 24 24" fill="none" xmlns="http://www.w3.org/2000/svg">
<path d="M21 5.91401C19.7947 4.25609 18.1273 3.03813 16.2322 2.43119C14.3371 1.82425 12.3093 1.85882 10.4338 2.53004C8.55822 3.20126 6.92906 4.47542 5.77512 6.17356C4.62117 7.8717 4.00041 9.90851 4 11.9979C3.99959 14.0874 4.61957 16.1245 5.77285 17.8231C6.92614 19.5217 8.5548 20.7966 10.4301 21.4686C12.3054 22.1407 14.3331 22.1761 16.2285 21.57C18.1238 20.9639 19.7916 19.7466 20.9976 18.0892" stroke="#99A2CD" stroke-width="3"/>
<line x1="1" y1="10" x2="16" y2="10" stroke="#99A2CD" stroke-width="2"/>
<line x1="1" y1="14" x2="16" y2="14" stroke="#99A2CD" stroke-width="2"/>
</svg>
