<svg width="54" height="56" viewBox="0 0 54 56" fill="none" xmlns="http://www.w3.org/2000/svg">
<circle opacity="0.2" cx="26" cy="28" r="25.5" stroke="#23CAD4"/>
<path opacity="0.2" d="M26 55C29.5457 55 33.0567 54.3016 36.3325 52.9447C39.6082 51.5879 42.5847 49.5991 45.0919 47.0919C47.5991 44.5847 49.5879 41.6082 50.9447 38.3325C52.3016 35.0567 53 31.5457 53 28C53 24.4543 52.3016 20.9433 50.9447 17.6675C49.5879 14.3918 47.5991 11.4153 45.0919 8.90812C42.5847 6.40093 39.6082 4.41213 36.3325 3.05525C33.0567 1.69837 29.5457 0.999999 26 0.999999" stroke="#23CAD4" stroke-width="2"/>
<path d="M26 54C29.4144 54 32.7953 53.3275 35.9498 52.0209C39.1042 50.7142 41.9705 48.7991 44.3848 46.3848C46.7991 43.9704 48.7142 41.1042 50.0209 37.9498C51.3275 34.7953 52 31.4144 52 28C52 24.5856 51.3275 21.2047 50.0209 18.0502C48.7142 14.8958 46.7991 12.0295 44.3848 9.61522C41.9705 7.2009 39.1042 5.28575 35.9498 3.97913C32.7953 2.67251 29.4144 2 26 2" stroke="#23CAD4"/>
<circle cx="26.0002" cy="28" r="22" fill="#23CAD4" fill-opacity="0.2"/>
<path opacity="0.2" d="M41.9996 32.3192C41.6927 23.6994 34.4803 16.804 25.6279 16.804C17.1841 16.804 10.3033 23.6894 10.001 32.3004C9.99337 32.5181 10.2575 32.6398 10.4264 32.5085C10.972 32.0844 11.84 31.5709 12.7973 31.4478C13.9741 31.2964 15.4658 32.1746 16.2204 32.7454C16.3251 32.8246 16.471 32.8095 16.5595 32.7116C17.6555 31.4992 20.7472 29.3853 25.6279 29.3853C30.757 29.3853 34.0003 31.5125 35.1389 32.723C35.2263 32.816 35.3663 32.8304 35.469 32.7558C36.2549 32.1853 37.8291 31.2955 39.0695 31.4478C40.0889 31.5729 41.0116 32.1013 41.5812 32.5293C41.75 32.6562 42.0073 32.5342 41.9996 32.3192Z" fill="#23CAD4"/>
<path d="M25.6272 15V16.4883" stroke="#23CAD4" stroke-width="2" stroke-linecap="round" stroke-linejoin="round"/>
<path d="M25.6273 29.8831V39.1852C25.6273 40.2126 24.7943 41.0456 23.7669 41.0456V41.0456C22.7394 41.0456 21.9065 40.2126 21.9065 39.1852V38.8131" stroke="#23CAD4" stroke-width="2" stroke-linecap="round" stroke-linejoin="round"/>
<path d="M35.2822 32.8599C35.2822 24.2291 30.9595 17.2325 25.6272 17.2325C34.2572 17.2325 41.3276 23.6064 41.9537 31.6915C41.9876 32.13 41.4365 32.3947 41.0574 32.1715C40.5135 31.8512 39.8133 31.5473 39.0603 31.4575C37.717 31.2972 35.9819 32.3256 35.2822 32.8599ZM35.2822 32.8599C34.3027 31.7246 31.0004 29.4539 25.6272 29.4539" stroke="#23CAD4" stroke-width="2" stroke-linecap="round" stroke-linejoin="round"/>
<path d="M16.411 32.8599C16.411 24.2291 20.5373 17.2325 25.6272 17.2325C17.4026 17.2325 10.662 23.5861 10.0457 31.6528C10.0118 32.097 10.5786 32.363 10.9605 32.1337C11.4704 31.8275 12.1143 31.5438 12.8047 31.4575C14.0869 31.2972 15.7432 32.3256 16.411 32.8599ZM16.411 32.8599C17.346 31.7246 20.4982 29.4539 25.6272 29.4539" stroke="#23CAD4" stroke-width="2" stroke-linecap="round" stroke-linejoin="round"/>
</svg>
