<svg width="56" height="56" viewBox="0 0 56 56" fill="none" xmlns="http://www.w3.org/2000/svg">
<circle opacity="0.2" cx="28" cy="28" r="26" stroke="#50C9B5"/>
<path d="M2 28C2 33.1423 3.52487 38.1691 6.38179 42.4448C9.2387 46.7205 13.2994 50.053 18.0502 52.0209C22.8011 53.9887 28.0288 54.5036 33.0723 53.5004C38.1158 52.4972 42.7486 50.0209 46.3848 46.3848C50.0209 42.7486 52.4972 38.1158 53.5004 33.0723C54.5036 28.0288 53.9887 22.8011 52.0209 18.0502C50.053 13.2994 46.7205 9.23871 42.4448 6.38179C38.1691 3.52487 33.1423 2 28 2" stroke="#50C9B5"/>
<path opacity="0.4" d="M0.999999 28C0.999998 33.3401 2.58352 38.5603 5.55031 43.0004C8.51711 47.4405 12.7339 50.9012 17.6675 52.9447C22.6011 54.9883 28.0299 55.523 33.2674 54.4812C38.5049 53.4394 43.3159 50.8679 47.0919 47.0919C50.8679 43.3159 53.4394 38.5049 54.4812 33.2674C55.523 28.0299 54.9883 22.6011 52.9447 17.6675C50.9012 12.7339 47.4405 8.51712 43.0004 5.55032C38.5603 2.58352 33.3401 1 28 1" stroke="#50C9B5" stroke-width="2"/>
<circle cx="28" cy="28" r="22" fill="#50C9B5" fill-opacity="0.2"/>
<path opacity="0.2" d="M40.6528 19.522C39.9091 18.7224 39.026 18.0882 38.0541 17.6555C37.0821 17.2227 36.0403 17 34.9882 17C33.9362 17 32.8944 17.2227 31.9224 17.6555C30.9505 18.0882 30.0674 18.7224 29.3236 19.522L27.7801 21.1805L26.2365 19.522C24.7341 17.9077 22.6965 17.0008 20.5719 17.0008C18.4472 17.0008 16.4096 17.9077 14.9073 19.522C13.4049 21.1362 12.5609 23.3257 12.5609 25.6086C12.5609 27.8915 13.4049 30.0809 14.9073 31.6951L16.4508 33.3537L27.7801 43.5366L39.1093 33.3537L40.6528 31.6951C41.397 30.896 41.9872 29.9471 42.39 28.9028C42.7927 27.8584 43 26.739 43 25.6086C43 24.4781 42.7927 23.3587 42.39 22.3144C41.9872 21.27 41.397 20.3211 40.6528 19.522Z" fill="#50C9B5"/>
<path d="M12.5609 25.6086C12.5609 23.3257 13.4049 21.1362 14.9073 19.522C16.4096 17.9077 18.4472 17.0008 20.5719 17.0008C22.6965 17.0008 24.7341 17.9077 26.2365 19.522L27.7801 21.1805L29.3236 19.522C30.0674 18.7224 30.9505 18.0882 31.9224 17.6555C32.8944 17.2227 33.9362 17 34.9882 17C36.0403 17 37.0821 17.2227 38.0541 17.6555C39.026 18.0882 39.9091 18.7224 40.6528 19.522C41.397 20.3211 41.9872 21.27 42.39 22.3144C42.7927 23.3587 43 24.4781 43 25.6086C43 26.739 42.7927 27.8584 42.39 28.9028C41.9872 29.9471 41.397 30.896 40.6528 31.6951L39.1093 33.3537L27.7801 43.5366L21.439 37.9723" stroke="#50C9B5" stroke-width="2" stroke-linecap="round" stroke-linejoin="round"/>
<path d="M12 31.8883H14.2335L16.2544 28.8252L18.6795 32.4626L21.9129 24.805L24.7422 34.9513L28.1777 29.0167L29.9965 31.8883H33.6342" stroke="#50C9B5" stroke-width="2" stroke-linecap="round" stroke-linejoin="round"/>
</svg>
