<svg width="52" height="55" viewBox="0 0 52 55" fill="none" xmlns="http://www.w3.org/2000/svg">
<circle opacity="0.2" cx="26" cy="28.879" r="25.5" stroke="#FF6C2E"/>
<path opacity="0.2" d="M32.7293 2.76497C30.6606 2.21066 28.5313 1.91408 26.3899 1.88197" stroke="#FF6C2E" stroke-width="2"/>
<path d="M32.7328 3.76591C30.5382 3.17752 28.2758 2.87936 26.0037 2.87904" stroke="#FF6C2E"/>
<circle cx="26.0002" cy="28.879" r="22" fill="#FF6C2E" fill-opacity="0.2"/>
<path d="M19.8894 33.6357L18.12 41.3169M29.9953 32.805L33.3228 40.7395M36.5624 38.277C30.705 44.0991 20.8876 44.4454 14.6345 39.0504" stroke="#FF6C2E" stroke-width="2" stroke-linecap="round" stroke-linejoin="round"/>
<path d="M19.9257 33.5764L32.7461 32.1131C33.717 32.0023 34.4143 31.1253 34.3035 30.1544V30.1544C34.1926 29.1834 33.3157 28.4862 32.3447 28.597L18.6318 30.1621" stroke="#FF6C2E" stroke-width="2" stroke-linecap="round" stroke-linejoin="round"/>
<path d="M17.3665 26.0275L30.7277 24.5024" stroke="#FF6C2E" stroke-width="2" stroke-linecap="round" stroke-linejoin="round"/>
<path d="M28.737 24.7882L29.109 28.4155" stroke="#FF6C2E" stroke-width="2" stroke-linecap="round" stroke-linejoin="round"/>
<path d="M19.7361 33.598L14.2179 18.6223" stroke="#FF6C2E" stroke-width="2" stroke-linecap="round" stroke-linejoin="round"/>
<path d="M39 20.9204C37.5428 22.3025 35.1801 22.3025 33.7228 20.9204C32.2656 19.5383 32.2656 17.2976 33.7228 15.9156C35.18 14.5335 37.5427 14.5335 39 15.9156" stroke="#FF6C2E" stroke-width="2" stroke-linecap="round" stroke-linejoin="round"/>
<path d="M31.2144 18.418L36.1689 18.418" stroke="#FF6C2E" stroke-width="2" stroke-linecap="round" stroke-linejoin="round"/>
<path opacity="0.2" d="M32.1963 31.9866L19.483 33.5284L18.1891 29.9007L31.795 28.2507C32.825 28.1258 33.7499 28.8608 33.8607 29.8925C33.9715 30.9241 33.2264 31.8617 32.1963 31.9866Z" fill="#FF6C2E"/>
</svg>
