<svg width="54" height="55" viewBox="0 0 54 55" fill="none" xmlns="http://www.w3.org/2000/svg">
<circle opacity="0.2" cx="26" cy="28.5" r="25.5" stroke="#E0BC00"/>
<path d="M52 28.5C52 25.0856 51.3275 21.7047 50.0209 18.5502C48.7142 15.3958 46.7991 12.5295 44.3848 10.1152C41.9705 7.7009 39.1042 5.78575 35.9498 4.47913C32.7953 3.17251 29.4144 2.5 26 2.5" stroke="#E0BC00"/>
<path opacity="0.2" d="M53 28.5C53 24.9543 52.3016 21.4433 50.9447 18.1675C49.5879 14.8918 47.5991 11.9153 45.0919 9.40812C42.5847 6.90093 39.6082 4.91213 36.3325 3.55525C33.0567 2.19838 29.5457 1.5 26 1.5" stroke="#E0BC00" stroke-width="2"/>
<circle cx="26.0002" cy="28.5" r="22" fill="#E0BC00" fill-opacity="0.2"/>
<path opacity="0.2" d="M26.0516 20.2419C26.0513 20.2681 26.0511 20.2945 26.0511 20.3208C25.9671 21.6895 26.5161 24.7597 29.3839 26.0913C32.2517 27.423 35.7928 25.5405 37.2049 24.4327C39.911 28.2539 39.63 33.0881 36.6227 36.6248C36.5166 36.7495 36.4343 36.8936 36.3868 37.0494L34.9715 41.6895C34.8248 42.1706 34.3746 42.5001 33.8639 42.5001H31.9697C31.5317 42.5001 31.1313 42.2567 30.9354 41.8713L30.4182 40.854C30.2223 40.4687 29.8219 40.2253 29.3839 40.2253H25.0312C24.5932 40.2253 24.1927 40.4687 23.9969 40.854L23.4797 41.8713C23.2838 42.2567 22.8834 42.5001 22.4453 42.5001H20.5631C20.0468 42.5001 19.593 42.1634 19.4512 41.6752L18.6512 38.9212C18.5758 38.6617 18.4092 38.4369 18.1789 38.2902C17.6106 37.9283 16.4768 37.2232 15.6433 36.8133C14.8833 36.4395 13.1213 35.82 12.5183 35.4392C12.193 35.2337 12 34.8785 12 34.4982V29.9885C12 29.3603 12.5177 28.8511 13.1564 28.8511H13.9452C14.2884 28.8511 15.1654 28.0152 15.3851 27.7559L16.8251 26.0913C17.153 25.7043 17.183 25.1513 16.8989 24.7322L15.9052 23.2662C15.4822 22.6421 15.7813 21.7822 16.5388 21.6952C17.7004 21.5617 18.931 21.7382 20.3914 22.3828C20.6848 22.5123 21.0194 22.535 21.3138 22.4077C21.7972 22.1985 22.3112 21.9372 22.8556 21.6603C23.8244 21.1677 24.8898 20.626 26.0516 20.2419Z" fill="#E0BC00"/>
<path d="M26.2163 19.6837L27.2162 19.6963L27.2337 18.2941L25.9024 18.7343L26.2163 19.6837ZM38.3163 23.3458C37.9971 22.8951 37.373 22.7885 36.9223 23.1076C36.4716 23.4268 36.3649 24.051 36.6841 24.5017L38.3163 23.3458ZM36.9112 36.2586L37.673 36.9064L37.673 36.9064L36.9112 36.2586ZM36.6726 36.6882L37.629 36.98V36.98L36.6726 36.6882ZM35.2407 41.3827L34.2842 41.0909L35.2407 41.3827ZM31.1573 41.5666L32.0487 41.1135V41.1135L31.1573 41.5666ZM30.634 40.5374L29.7426 40.9905V40.9906L30.634 40.5374ZM24.1374 40.5374L25.0288 40.9906L25.0288 40.9905L24.1374 40.5374ZM23.6142 41.5666L24.5056 42.0198L23.6142 41.5666ZM19.5385 41.3682L18.5782 41.6471L19.5385 41.3682ZM18.7291 38.5819L19.6894 38.303L19.6894 38.303L18.7291 38.5819ZM18.2513 37.9436L17.7141 38.787L17.7141 38.787L18.2513 37.9436ZM15.686 36.4493L15.2447 37.3467L15.2447 37.3467L15.686 36.4493ZM12.5244 35.0591L11.9904 35.9046L11.9904 35.9046L12.5244 35.0591ZM15.4248 27.2858L14.6685 26.6315L14.6618 26.6394L15.4248 27.2858ZM16.8817 25.6017L17.638 26.256L17.6446 26.2482L16.8817 25.6017ZM16.9563 24.2267L17.7841 23.6656V23.6656L16.9563 24.2267ZM15.951 22.7436L16.7787 22.1825H16.7787L15.951 22.7436ZM16.592 21.1541L16.4779 20.1606V20.1606L16.592 21.1541ZM20.4897 21.8497L20.8935 20.9349L20.8935 20.9349L20.4897 21.8497ZM21.4229 21.8749L21.82 22.7927V22.7927L21.4229 21.8749ZM22.9828 21.1188L22.5295 20.2274L22.5295 20.2274L22.9828 21.1188ZM27.2158 19.7636C27.2158 19.7411 27.2159 19.7187 27.2162 19.6963L25.2163 19.6712C25.2159 19.702 25.2158 19.7327 25.2158 19.7636H27.2158ZM36.6841 24.5017C39.1516 27.9858 38.9029 32.3725 36.1494 35.6108L37.673 36.9064C41.0046 32.9884 41.3245 27.5935 38.3163 23.3458L36.6841 24.5017ZM36.1494 35.6108C35.9621 35.831 35.8077 36.096 35.7161 36.3965L37.629 36.98C37.6335 36.9653 37.6456 36.9386 37.673 36.9064L36.1494 35.6108ZM35.7161 36.3965L34.2842 41.0909L36.1972 41.6744L37.629 36.98L35.7161 36.3965ZM34.2842 41.0909C34.2668 41.148 34.2062 41.2028 34.1201 41.2028V43.2028C35.0673 43.2028 35.9177 42.5908 36.1972 41.6744L34.2842 41.0909ZM34.1201 41.2028H32.2037V43.2028H34.1201V41.2028ZM32.2037 41.2028C32.1306 41.2028 32.0734 41.1622 32.0487 41.1135L30.2658 42.0198C30.6374 42.7508 31.3905 43.2028 32.2037 43.2028V41.2028ZM32.0487 41.1135L31.5255 40.0842L29.7426 40.9906L30.2658 42.0198L32.0487 41.1135ZM31.5255 40.0842C31.1539 39.3532 30.4007 38.9013 29.5876 38.9013V40.9013C29.6607 40.9013 29.7178 40.9418 29.7426 40.9905L31.5255 40.0842ZM29.5876 38.9013H25.1839V40.9013H29.5876V38.9013ZM25.1839 38.9013C24.3707 38.9013 23.6176 39.3532 23.246 40.0842L25.0288 40.9905C25.0536 40.9418 25.1107 40.9013 25.1839 40.9013V38.9013ZM23.246 40.0842L22.7228 41.1135L24.5056 42.0198L25.0288 40.9906L23.246 40.0842ZM22.7228 41.1135C22.698 41.1622 22.6409 41.2028 22.5677 41.2028V43.2028C23.3809 43.2028 24.134 42.7508 24.5056 42.0198L22.7228 41.1135ZM22.5677 41.2028H20.6634V43.2028H22.5677V41.2028ZM20.6634 41.2028C20.5763 41.2028 20.5155 41.1469 20.4988 41.0892L18.5782 41.6471C18.8484 42.5775 19.7058 43.2028 20.6634 43.2028V41.2028ZM20.4988 41.0892L19.6894 38.303L17.7688 38.8609L18.5782 41.6471L20.4988 41.0892ZM19.6894 38.303C19.5461 37.8097 19.2288 37.3805 18.7884 37.1001L17.7141 38.787C17.7399 38.8035 17.7595 38.829 17.7688 38.8609L19.6894 38.303ZM18.7884 37.1001C18.2162 36.7357 17.0262 35.994 16.1273 35.552L15.2447 37.3467C16.0322 37.734 17.1365 38.4192 17.7141 38.787L18.7884 37.1001ZM16.1273 35.552C15.7016 35.3426 15.011 35.0707 14.4233 34.831C13.773 34.5657 13.2716 34.3483 13.0584 34.2136L11.9904 35.9046C12.3873 36.1553 13.0821 36.4439 13.6679 36.6828C14.3163 36.9473 14.9015 37.1779 15.2447 37.3467L16.1273 35.552ZM13.0584 34.2136C13.0217 34.1905 13 34.1516 13 34.1072H11C11 34.8322 11.3688 35.5121 11.9904 35.9046L13.0584 34.2136ZM13 34.1072V29.5446H11V34.1072H13ZM13 29.5446C13 29.4769 13.0604 29.3938 13.17 29.3938V27.3938C11.9872 27.3938 11 28.3412 11 29.5446H13ZM13.17 29.3938H13.968V27.3938H13.17V29.3938ZM13.968 29.3938C14.1959 29.3938 14.3855 29.3292 14.499 29.2829C14.6242 29.2318 14.7389 29.1684 14.835 29.1092C15.0274 28.9908 15.2187 28.8437 15.3835 28.7064C15.7082 28.4358 16.03 28.1185 16.1878 27.9322L14.6618 26.6394C14.5973 26.7155 14.3644 26.9522 14.103 27.17C13.9748 27.2769 13.8653 27.3576 13.7867 27.406C13.7474 27.4302 13.734 27.4349 13.7434 27.4311C13.7492 27.4288 13.7694 27.4208 13.8019 27.4128C13.8333 27.4052 13.891 27.3938 13.968 27.3938V29.3938ZM16.1811 27.94L17.638 26.256L16.1254 24.9475L14.6685 26.6315L16.1811 27.94ZM17.6446 26.2482C18.2658 25.5151 18.3239 24.462 17.7841 23.6656L16.1286 24.7878C16.1636 24.8395 16.161 24.9053 16.1187 24.9553L17.6446 26.2482ZM17.7841 23.6656L16.7787 22.1825L15.1232 23.3046L16.1286 24.7878L17.7841 23.6656ZM16.7787 22.1825C16.7631 22.1594 16.7578 22.1401 16.7562 22.1264C16.7544 22.1112 16.7573 22.1031 16.7572 22.1033C16.7568 22.1043 16.7514 22.1169 16.7339 22.1309C16.7254 22.1377 16.7167 22.1426 16.7094 22.1457C16.702 22.1487 16.7 22.1482 16.7061 22.1475L16.4779 20.1606C15.6993 20.25 15.1321 20.7558 14.89 21.3868C14.6547 22.0001 14.726 22.7187 15.1232 23.3046L16.7787 22.1825ZM16.7061 22.1475C17.6812 22.0355 18.7479 22.174 20.0859 22.7646L20.8935 20.9349C19.2766 20.2212 17.8531 20.0026 16.4779 20.1606L16.7061 22.1475ZM20.0859 22.7646C20.5904 22.9872 21.2226 23.0511 21.82 22.7927L21.0258 20.9571C21.0254 20.9573 21.0164 20.9613 20.9938 20.9605C20.9697 20.9596 20.9346 20.953 20.8935 20.9349L20.0859 22.7646ZM21.82 22.7927C22.3431 22.5664 22.8921 22.2868 23.436 22.0102L22.5295 20.2274C21.9719 20.511 21.481 20.7602 21.0258 20.9571L21.82 22.7927ZM23.436 22.0102C24.4249 21.5074 25.4375 20.9944 26.5301 20.6332L25.9024 18.7343C24.644 19.1503 23.501 19.7334 22.5295 20.2274L23.436 22.0102Z" fill="#E0BC00"/>
<path d="M37.8006 20.8337C37.8006 23.8086 35.2961 26.2203 32.2066 26.2203C29.1171 26.2203 26.6125 23.8086 26.6125 20.8337C26.6125 17.8587 29.1171 15.447 32.2066 15.447C35.2961 15.447 37.8006 17.8587 37.8006 20.8337Z" stroke="#E0BC00" stroke-width="2"/>
<path d="M37.3308 23.0239C39.6823 22.8404 41.5293 21.0057 41.5293 18.7695C41.5293 16.4115 39.8641 14.5 37.3308 14.5C36.2439 14.5 35.1944 15.0897 34.6343 15.6498" stroke="#E0BC00" stroke-width="2" stroke-linecap="round"/>
<path d="M21.5894 29.5692C21.5894 29.1488 21.0782 28.8081 20.4478 28.8081C19.8173 28.8081 19.3062 29.1488 19.3062 29.5692" stroke="#E0BC00" stroke-width="2" stroke-linecap="round"/>
</svg>
