<svg width="56" height="56" viewBox="0 0 56 56" fill="none" xmlns="http://www.w3.org/2000/svg">
<rect width="56" height="56" rx="28" fill="#EEF0FC"/>
<path d="M45.6007 32.7997C45.2631 23.3176 37.3292 15.7324 27.5912 15.7324C18.3027 15.7324 10.7336 23.3065 10.4011 32.779C10.3927 33.0184 10.6832 33.1524 10.869 33.0079C11.4692 32.5414 12.424 31.9765 13.4771 31.8411C14.7716 31.6746 16.4125 32.6406 17.2426 33.2685C17.3577 33.3556 17.5183 33.339 17.6156 33.2314C18.8212 31.8977 22.2223 29.5722 27.5912 29.5722C33.2334 29.5722 36.8011 31.9123 38.0537 33.2439C38.1498 33.3461 38.3038 33.362 38.4168 33.28C39.2812 32.6524 41.013 31.6736 42.3774 31.8411C43.4988 31.9787 44.5138 32.56 45.1404 33.0308C45.3261 33.1704 45.6091 33.0361 45.6007 32.7997Z" fill="#CFD4FA"/>
<path d="M27.5908 13.748V15.3853" stroke="#717FE2" stroke-width="2" stroke-linecap="round" stroke-linejoin="round"/>
<path d="M27.5905 30.1211V40.3537C27.5905 41.4839 26.6743 42.4002 25.5441 42.4002V42.4002C24.4138 42.4002 23.4976 41.4839 23.4976 40.3537V39.9443" stroke="#717FE2" stroke-width="2" stroke-linecap="round" stroke-linejoin="round"/>
<path d="M38.2117 33.3938C38.2117 23.8997 33.4566 16.2031 27.5908 16.2031C37.1256 16.2031 44.9298 23.2761 45.5592 32.2252C45.59 32.664 45.0402 32.9262 44.6649 32.6967C44.0536 32.3229 43.2431 31.9555 42.3677 31.8511C40.89 31.6747 38.9813 32.8061 38.2117 33.3938ZM38.2117 33.3938C37.1342 32.1449 33.5016 29.6471 27.5908 29.6471" stroke="#717FE2" stroke-width="2" stroke-linecap="round" stroke-linejoin="round"/>
<path d="M17.4527 33.3938C17.4527 23.8997 21.9917 16.2031 27.5908 16.2031C18.5025 16.2031 11.0615 23.2557 10.4419 32.1865C10.411 32.6309 10.9762 32.8943 11.3539 32.6581C11.9298 32.2979 12.6789 31.9519 13.4856 31.8511C14.8961 31.6747 16.7181 32.8061 17.4527 33.3938ZM17.4527 33.3938C18.4812 32.1449 21.9487 29.6471 27.5908 29.6471" stroke="#717FE2" stroke-width="2" stroke-linecap="round" stroke-linejoin="round"/>
</svg>
